<svg width="80" height="80" viewBox="0 0 80 80" fill="none" xmlns="http://www.w3.org/2000/svg">
<path d="M41.25 15.54C43.25 15.54 45.39 15.62 47.6 15.71C50.24 15.82 52.96 15.93 56.03 15.93C62.41 15.93 66.9 17.38 70.17 20.47C72.0193 22.2729 73.4881 24.4286 74.4895 26.8092C75.4909 29.1899 76.0045 31.7473 76 34.33C76.1453 36.9098 75.7783 39.4928 74.9201 41.93C74.0619 44.3672 72.7296 46.6104 71 48.53C69.2139 50.4305 67.0681 51.9573 64.6871 53.0216C62.3061 54.0859 59.7373 54.6666 57.13 54.73C53.41 54.84 50.55 54.99 48.03 55.13C45.35 55.28 43.15 55.4 40.93 55.4C39.93 55.4 38.93 55.4 37.93 55.32C36.49 58.89 32.41 64.17 21 64.51H20.83C19.64 64.29 18.64 64.03 18.5 63.15C18.36 62.27 19.17 61.82 20.39 61.15C22.2 60.15 25.09 58.65 25.98 55.65L23.98 55.7H23.4C18.3549 55.6811 13.5076 53.735 9.85002 50.26C8.02127 48.4863 6.56257 46.3675 5.5584 44.0261C4.55423 41.6848 4.02455 39.1675 4.00002 36.62C3.99001 36.5537 3.99001 36.4863 4.00002 36.42C3.84623 33.8425 4.20935 31.2602 5.06801 28.8251C5.92667 26.3899 7.26354 24.151 9.00002 22.24C10.784 20.3365 12.9272 18.805 15.306 17.734C17.6849 16.663 20.2522 16.0737 22.86 16L30.15 15.8C32.6 15.73 34.62 15.68 39.4 15.53H41.23L41.25 15.54ZM41.25 13.81H39.35C34.57 13.96 32.56 14.01 30.11 14.08L22.8 14.28C19.9728 14.3557 17.1883 14.9882 14.6058 16.1413C12.0234 17.2944 9.69364 18.9455 7.75002 21C5.84301 23.0778 4.37407 25.5185 3.43084 28.1764C2.48761 30.8342 2.08941 33.6549 2.26002 36.47V36.83C2.30575 39.5816 2.89368 42.2972 3.99015 44.8213C5.08663 47.3455 6.67013 49.6286 8.65001 51.54C12.4912 55.1835 17.5382 57.287 22.83 57.45C21.8507 58.3079 20.761 59.031 19.59 59.6C18.26 60.3 16.46 61.26 16.78 63.39C17.1 65.52 19.41 66.01 20.52 66.21C20.6827 66.2301 20.8473 66.2301 21.01 66.21H21.13C32.44 65.88 37.13 60.77 39.04 57.07H40.93C43.21 57.07 45.49 56.95 48.12 56.8C50.75 56.65 53.47 56.51 57.18 56.4C60.0045 56.3455 62.7889 55.7216 65.3667 54.5657C67.9444 53.4099 70.2624 51.7458 72.182 49.6731C74.1015 47.6005 75.5832 45.1618 76.5382 42.5031C77.4932 39.8444 77.902 37.0204 77.74 34.2C77.7347 31.4009 77.1682 28.6313 76.0741 26.0549C74.98 23.4785 73.3804 21.1476 71.37 19.2C67.75 15.79 62.88 14.2 56.03 14.2C53.03 14.2 50.29 14.09 47.68 13.98C45.53 13.9 43.32 13.81 41.25 13.81Z" fill="white"/>
<path d="M56 16.85C49.37 16.85 44.12 16.33 39.42 16.48C31.15 16.73 31.15 16.71 22.87 16.95C17.8655 17.0977 13.1246 19.2272 9.69 22.87C8.03855 24.6946 6.76708 26.8298 5.94982 29.1511C5.13255 31.4724 4.78587 33.9332 4.93 36.39H5C5.00095 38.8484 5.49029 41.2821 6.4396 43.5498C7.38892 45.8176 8.7793 47.8741 10.53 49.6C14.1553 53.0459 18.9998 54.9125 24 54.79L27.11 54.7C26.23 62.07 15.43 62.55 21.01 63.6C32.47 63.26 36.15 57.8 37.33 54.37C43.12 54.75 47.22 54.1 57.1 53.81C59.588 53.7442 62.0383 53.1868 64.31 52.17C66.5737 51.1591 68.6133 49.7076 70.31 47.9C71.9571 46.0693 73.2242 43.9297 74.0379 41.6054C74.8516 39.281 75.1956 36.8183 75.05 34.36C75.0486 31.9046 74.559 29.474 73.6096 27.2096C72.6603 24.9452 71.2701 22.8922 69.52 21.17C66 17.8 61.24 16.86 56 16.85Z" fill="white"/>
<path d="M21 64.47H20.84C19.66 64.25 18.68 63.99 18.55 63.13C18.42 62.27 19.21 61.83 20.42 61.19C22.24 60.19 25.16 58.66 26.03 55.62H24.03C21.4372 55.6945 18.8554 55.2528 16.4348 54.3206C14.0142 53.3885 11.8031 51.9844 9.92999 50.19C6.29447 46.6251 4.21054 41.771 4.12999 36.68C4.08689 36.5927 4.06302 36.4973 4.05999 36.4C3.90513 33.8364 4.26218 31.2675 5.11032 28.8433C5.95845 26.4191 7.28071 24.188 8.99999 22.28C12.6007 18.4648 17.5664 16.2318 22.81 16.07L30.28 15.86C32.66 15.8 34.69 15.75 39.36 15.6C41.88 15.53 44.59 15.6 47.46 15.75C50.12 15.86 52.86 15.97 55.96 15.97C62.36 15.97 66.85 17.44 70.11 20.54C71.9612 22.3363 73.4357 24.4838 74.447 26.8567C75.4583 29.2297 75.9863 31.7805 76 34.36C76.1429 36.9274 75.7745 39.4976 74.9162 41.9215C74.0578 44.3454 72.7267 46.5746 71 48.48C69.2142 50.3755 67.0711 51.8992 64.6942 52.9632C62.3172 54.0273 59.7533 54.6107 57.15 54.68C53.44 54.79 50.58 54.95 48.07 55.09C44.6996 55.3438 41.3175 55.4072 37.94 55.28C36.5 58.83 32.45 64.14 21.06 64.47H21ZM27.1 53.82C27.2225 53.821 27.3434 53.8473 27.4552 53.8972C27.5671 53.9471 27.6674 54.0195 27.75 54.11C27.8335 54.2028 27.8963 54.3124 27.9343 54.4313C27.9722 54.5503 27.9844 54.676 27.97 54.8C27.42 59.43 23.42 61.56 21.26 62.72C32.06 62.31 35.44 57.14 36.49 54.08C36.5549 53.8996 36.6769 53.7452 36.8376 53.6406C36.9982 53.5359 37.1887 53.4865 37.38 53.5C40.9197 53.6757 44.4671 53.6222 48 53.34C50.53 53.2 53.39 53.04 57.13 52.93C59.5 52.8728 61.8351 52.346 64 51.38C66.1477 50.4044 68.084 49.0184 69.7 47.3C71.267 45.557 72.4719 43.5198 73.2444 41.3069C74.017 39.094 74.3418 36.7496 74.2 34.41C74.1997 32.0625 73.7338 29.7383 72.8292 27.5721C71.9246 25.4058 70.5993 23.4405 68.93 21.79C66 19 61.92 17.74 56 17.72C52.86 17.72 50 17.61 47.43 17.5C44.43 17.38 41.9 17.28 39.43 17.35L30.35 17.61L22.88 17.82C19.3274 17.8719 15.8766 19.0144 12.995 21.0929C10.1134 23.1713 7.94027 26.0853 6.76999 29.44C6.01499 31.5586 5.67546 33.8029 5.76999 36.05C5.82885 36.1537 5.85986 36.2708 5.85999 36.39C5.86085 38.7377 6.32904 41.0618 7.23726 43.2268C8.14548 45.3918 9.47557 47.3543 11.15 49C12.8597 50.629 14.8761 51.902 17.0821 52.7449C19.2881 53.5878 21.6396 53.9839 24 53.91L27.11 53.82H27.1Z" fill="#222222"/>
<path d="M25.75 39.39C26.5728 39.39 27.3771 39.146 28.0612 38.6889C28.7453 38.2318 29.2785 37.5821 29.5934 36.822C29.9082 36.0618 29.9906 35.2254 29.8301 34.4184C29.6696 33.6115 29.2734 32.8702 28.6916 32.2884C28.1098 31.7067 27.3686 31.3105 26.5616 31.1499C25.7546 30.9894 24.9182 31.0718 24.1581 31.3867C23.3979 31.7015 22.7482 32.2347 22.2911 32.9188C21.834 33.6029 21.59 34.4072 21.59 35.23C21.59 36.3333 22.0283 37.3914 22.8085 38.1716C23.5886 38.9517 24.6467 39.39 25.75 39.39Z" fill="white"/>
<path d="M25.75 40.26C24.7611 40.26 23.7944 39.9668 22.9722 39.4174C22.1499 38.868 21.509 38.0871 21.1306 37.1734C20.7522 36.2598 20.6531 35.2545 20.8461 34.2846C21.039 33.3147 21.5152 32.4237 22.2145 31.7245C22.9137 31.0252 23.8046 30.549 24.7746 30.3561C25.7445 30.1632 26.7498 30.2622 27.6634 30.6406C28.5771 31.0191 29.3579 31.6599 29.9074 32.4822C30.4568 33.3044 30.75 34.2711 30.75 35.26C30.75 36.5861 30.2232 37.8579 29.2855 38.7955C28.3479 39.7332 27.0761 40.26 25.75 40.26ZM25.75 31.94C25.0977 31.9321 24.4577 32.1183 23.9114 32.4749C23.3651 32.8316 22.9372 33.3426 22.6821 33.943C22.4269 34.5434 22.356 35.2062 22.4784 35.847C22.6008 36.4878 22.911 37.0778 23.3694 37.5419C23.8279 38.006 24.414 38.3233 25.0533 38.4536C25.6926 38.5838 26.3561 38.521 26.9596 38.2732C27.5631 38.0254 28.0793 37.6038 28.4426 37.0619C28.8059 36.5201 29 35.8824 29 35.23C29.0001 34.3643 28.6589 33.5335 28.0506 32.9177C27.4422 32.3018 26.6156 31.9505 25.75 31.94Z" fill="#222222"/>
<path d="M40.15 39.39C40.9732 39.392 41.7785 39.1497 42.4639 38.6938C43.1493 38.2379 43.6841 37.5889 44.0005 36.8289C44.3169 36.0689 44.4007 35.2322 44.2413 34.4246C44.0819 33.617 43.6865 32.8748 43.1051 32.292C42.5237 31.7092 41.7825 31.312 40.9753 31.1507C40.168 30.9894 39.3311 31.0711 38.5704 31.3857C37.8096 31.7003 37.1593 32.2335 36.7018 32.9178C36.2442 33.6021 36 34.4068 36 35.23C36 36.3316 36.4369 37.3882 37.2149 38.168C37.9929 38.9479 39.0484 39.3873 40.15 39.39Z" fill="white"/>
<path d="M40.15 40.26C39.1611 40.26 38.1944 39.9668 37.3722 39.4174C36.5499 38.868 35.9091 38.0871 35.5306 37.1734C35.1522 36.2598 35.0532 35.2545 35.2461 34.2846C35.439 33.3147 35.9152 32.4237 36.6145 31.7245C37.3138 31.0252 38.2047 30.549 39.1746 30.3561C40.1445 30.1632 41.1498 30.2622 42.0634 30.6406C42.9771 31.0191 43.758 31.6599 44.3074 32.4822C44.8568 33.3044 45.15 34.2711 45.15 35.26C45.15 36.5861 44.6232 37.8579 43.6856 38.7955C42.7479 39.7332 41.4761 40.26 40.15 40.26ZM40.15 31.94C39.4993 31.94 38.8632 32.133 38.3222 32.4945C37.7812 32.856 37.3595 33.3698 37.1105 33.971C36.8614 34.5722 36.7963 35.2337 36.9232 35.8719C37.0502 36.5101 37.3635 37.0963 37.8236 37.5564C38.2838 38.0165 38.87 38.3299 39.5082 38.4568C40.1464 38.5837 40.8079 38.5186 41.4091 38.2696C42.0102 38.0206 42.5241 37.5989 42.8856 37.0578C43.2471 36.5168 43.44 35.8807 43.44 35.23C43.44 34.3574 43.0934 33.5206 42.4764 32.9036C41.8594 32.2866 41.0226 31.94 40.15 31.94Z" fill="#222222"/>
<path d="M54.56 39.39C55.3828 39.39 56.1871 39.146 56.8712 38.6889C57.5553 38.2318 58.0885 37.5821 58.4034 36.822C58.7182 36.0618 58.8006 35.2254 58.6401 34.4184C58.4796 33.6115 58.0834 32.8702 57.5016 32.2884C56.9198 31.7067 56.1786 31.3105 55.3716 31.1499C54.5646 30.9894 53.7282 31.0718 52.9681 31.3867C52.2079 31.7015 51.5582 32.2347 51.1011 32.9188C50.644 33.6029 50.4 34.4072 50.4 35.23C50.4 36.3333 50.8383 37.3914 51.6185 38.1716C52.3986 38.9517 53.4567 39.39 54.56 39.39Z" fill="white"/>
<path d="M54.56 40.26C53.5711 40.26 52.6044 39.9668 51.7821 39.4174C50.9599 38.868 50.319 38.0871 49.9406 37.1734C49.5622 36.2598 49.4631 35.2545 49.6561 34.2846C49.849 33.3147 50.3252 32.4237 51.0245 31.7245C51.7237 31.0252 52.6146 30.549 53.5845 30.3561C54.5545 30.1632 55.5598 30.2622 56.4734 30.6406C57.387 31.0191 58.1679 31.6599 58.7173 32.4822C59.2668 33.3044 59.56 34.2711 59.56 35.26C59.56 36.5861 59.0332 37.8579 58.0955 38.7955C57.1579 39.7332 55.8861 40.26 54.56 40.26ZM54.56 31.94C53.9093 31.94 53.2732 32.133 52.7322 32.4945C52.1911 32.856 51.7694 33.3698 51.5204 33.971C51.2714 34.5722 51.2063 35.2337 51.3332 35.8719C51.4602 36.5101 51.7735 37.0963 52.2336 37.5564C52.6937 38.0165 53.28 38.3299 53.9182 38.4568C54.5563 38.5837 55.2179 38.5186 55.819 38.2696C56.4202 38.0206 56.934 37.5989 57.2955 37.0578C57.657 36.5168 57.85 35.8807 57.85 35.23C57.85 34.3574 57.5034 33.5206 56.8864 32.9036C56.2694 32.2866 55.4326 31.94 54.56 31.94Z" fill="#222222"/>
</svg>
