<svg viewBox="0 0 38 54"> <path d="M24.296 16.829c7.87 2.309 13.637 9.597 13.637 18.203C37.933 45.488 29.422 54 18.967 54 8.511 54 .001 45.49.001 35.032c0-8.625 5.791-15.926 13.689-18.218L5.706 7.047 11.522 0h14.956l5.816 7.047-7.998 9.782zm-5.329 1.237c-9.352 0-16.966 7.615-16.966 16.966C2.001 44.385 9.616 52 18.967 52c9.35 0 16.966-7.616 16.966-16.968 0-9.35-7.616-16.966-16.966-16.966zM12.464 2l-4.17 5.053 7.243 8.86c1.236-.205 2.366-.311 3.462-.311 1.156 0 2.3.105 3.466.307l7.24-8.856L25.536 2h-13.07zm6.537 15.602c-1.367 0-2.556.092-3.681.302l-.958-.348-8.135-9.922L7 6h24l.776 1.631-8.134 10-.97.35A18.738 18.738 0 0019 17.6zm0-2c1.152 0 2.296.105 3.464.307L28.898 8H9.113l6.428 7.839c1.079-.165 2.207-.237 3.46-.237zm-3.869-8.28l2.88 8.758c.265-.01.574-.014.987-.014.413 0 .722.003.987.014l2.881-8.757-3.9-4.334-3.835 4.334zm-.72-2.187L17.186 2h-3.804l1.03 3.135zM20.75 2l2.833 3.148L24.618 2H20.75zM19 18.066c-.798 0-1.141.012-1.547.07l-1.092-.677-5.31-16.147L12 0h14l.95 1.313-5.312 16.146-1.091.677c-.407-.058-.75-.07-1.548-.07z" fill-rule="nonzero" ></path> </svg>