<svg viewBox="0 0 55 36">
<path
d="M2 25.023c.05-.008.1-.012.153-.012h7.914a7.547 7.547 0 016.779-4.224 7.55 7.55 0 016.719 4.101h9.593a7.55 7.55 0 016.72-4.101 7.547 7.547 0 016.716 4.101h6.084v-6.497c0-.73-.149-1.447-.438-2.11L46.795 3.718A2.858 2.858 0 0044.174 2H3.138A1.14 1.14 0 002 3.139v21.884zM2 27v1.333c0 .665.54 1.206 1.206 1.206h6.187a7.612 7.612 0 01.02-2.528h-7.26c-.052 0-.103-.004-.153-.011zm8.009 4.539H3.206A3.206 3.206 0 010 28.333V3.139a3.14 3.14 0 013.138-3.14h41.036a4.859 4.859 0 014.455 2.924l5.446 12.56a7.28 7.28 0 01.603 2.908v9.846a3.304 3.304 0 01-3.302 3.302h-4.662a7.547 7.547 0 01-6.837 4.346 7.55 7.55 0 01-6.838-4.346h-9.354a7.55 7.55 0 01-6.839 4.346 7.547 7.547 0 01-6.837-4.346zm37.32-2h4.047c.718 0 1.302-.585 1.302-1.302v-1.349h-5.391a7.59 7.59 0 01.043 2.65zm-35.736.588c.023.049.04.1.055.152a5.55 5.55 0 0010.423-3.82.994.994 0 01-.166-.41 5.551 5.551 0 00-10.312 4.078zm12.665-3.239a7.585 7.585 0 01.043 2.65h8.122a7.607 7.607 0 01.043-2.65h-8.208zm9.926-19.885H22.54v5.524h11.643V7.003zm2 .041v5.767l1.08.813 1.147.86.514.386c.116.086.553.23.7.23h6.027a2831.413 2831.413 0 00-1.59-3.625l-.028-.062A660.403 660.403 0 0042.524 8c-.176-.392-.32-.712-.432-.957h-5.908zm-15.643-.04H9.03v5.523h11.512V7.003zm14.504 7.453v.07H7.03V5.003h28.016v.041h7.674c.97.514.97.514.896.548l.063.123c.039.08.091.191.158.335.123.266.295.647.513 1.134.383.855.899 2.022 1.516 3.423l.027.063a1914.415 1914.415 0 012.205 5.03l.612 1.4h-9.084c-.576 0-1.431-.282-1.895-.627l-.518-.388a1306.421 1306.421 0 01-2.167-1.628zM19.071 28.335a2.222 2.222 0 01-2.224 2.222 2.222 2.222 0 110-4.444c1.228 0 2.224.994 2.224 2.222zm-2 0c0-.122-.1-.222-.224-.222a.222.222 0 100 .444c.124 0 .224-.099.224-.222zm22.806-5.548a5.549 5.549 0 10-.002 11.097 5.549 5.549 0 00.002-11.097zm2.223 5.548a2.224 2.224 0 01-4.448 0 2.224 2.224 0 014.448 0zm-2 0a.22.22 0 00-.222-.222c-.126 0-.226.1-.226.222s.1.222.226.222a.22.22 0 00.222-.222z"
fill-rule="nonzero"
></path>
</svg>