<svg viewBox="0 0 24 24"><path d="M6.957 18.25l1.397 1.396a.5.5 0 01-.708.708L6.25 18.957l-1.396 1.397a.5.5 0 01-.708-.708l1.397-1.396-1.397-1.396a.5.5 0 01.708-.708l1.396 1.397 1.396-1.397a.5.5 0 01.708.708L6.957 18.25zM6.5 6h2a.5.5 0 110 1h-2v2a.5.5 0 11-1 0V7h-2a.5.5 0 010-1h2V4a.5.5 0 011 0v2zm6-5v11H23V2.172C23 1.525 22.475 1 21.828 1H12.5zm-1 0H2.172C1.525 1 1 1.525 1 2.172V12h10.5V1zm1 22h9.328c.647 0 1.172-.525 1.172-1.172V13H12.5v10zm-1 0V13H1v8.828C1 22.475 1.525 23 2.172 23H11.5zM2.172 0h19.656C23.028 0 24 .972 24 2.172v19.656c0 1.2-.972 2.172-2.172 2.172H2.172C.972 24 0 23.028 0 21.828V2.172C0 .972.972 0 2.172 0zM15.5 7a.5.5 0 110-1h5a.5.5 0 110 1h-5zm0 10a.5.5 0 110-1h5a.5.5 0 110 1h-5zm0 3a.5.5 0 110-1h5a.5.5 0 110 1h-5z" fill-rule="nonzero"></path></svg>