
<svg viewBox="0 0 54 47">
<path
d="M37.727 44.2V24.4a.873.873 0 00-.865-.871H4.586a.873.873 0 00-.864.871v19.8c0 .478.392.871.864.871h32.276a.873.873 0 00.865-.871zm1.857 0a2.73 2.73 0 01-2.722 2.729H4.586A2.73 2.73 0 011.865 44.2V24.4a2.73 2.73 0 012.721-2.729h32.276a2.73 2.73 0 012.722 2.729v19.8zm-29.54-13.471a.929.929 0 010-1.858h22.609a.929.929 0 010 1.858h-22.61zM19.86 10c0 5.482-4.43 9.929-9.894 9.929C4.5 19.929.07 15.482.07 10S4.501.071 9.966.071C15.43.071 19.86 4.518 19.86 10zm-1.858 0c0-4.458-3.6-8.071-8.036-8.071-4.438 0-8.037 3.613-8.037 8.071s3.6 8.071 8.037 8.071c4.437 0 8.036-3.613 8.036-8.071zm17.996 3.6c0 3.495-2.824 6.329-6.308 6.329-3.485 0-6.308-2.834-6.308-6.329 0-3.495 2.823-6.329 6.308-6.329 3.484 0 6.308 2.834 6.308 6.329zm-1.858 0c0-2.47-1.993-4.471-4.45-4.471-2.458 0-4.451 2-4.451 4.471 0 2.47 1.993 4.471 4.45 4.471 2.458 0 4.451-2 4.451-4.471zm4.157 24.986a.929.929 0 11.717-1.713l12.689 5.308c.297.124.368.077.368-.25V27.374c0-.328-.071-.376-.368-.252l-12.69 5.304a.929.929 0 11-.716-1.713l12.69-5.305c1.522-.636 2.942.315 2.942 1.966v14.557c0 1.651-1.42 2.6-2.942 1.963l-12.69-5.308z"
fill-rule="nonzero"
></path>
</svg>