<svg viewBox="0 0 21 27"><path d="M13.78 3.375h2.47a.5.5 0 01.5.5v.965h3.062c.634 0 1.15.514 1.15 1.148v19.796c0 .635-.516 1.149-1.15 1.149H1.87c-.635 0-1.15-.514-1.15-1.149V5.988c0-.634.515-1.148 1.15-1.148h3.056v-.965a.5.5 0 01.5-.5h2.47a2.96 2.96 0 015.884 0zm-.971.428a.502.502 0 01-.01-.1c0-1.08-.878-1.957-1.96-1.957-1.083 0-1.96.876-1.96 1.957a.504.504 0 01-.005.072.502.502 0 01-.49.6H5.927v2.057h9.823V4.375h-2.447a.5.5 0 01-.494-.572zM16.75 5.84v1.092a.5.5 0 01-.5.5H5.427a.5.5 0 01-.5-.5V5.84H1.871a.149.149 0 00-.15.148v19.796c0 .082.067.149.15.149h17.94c.083 0 .15-.067.15-.149V5.988a.149.149 0 00-.15-.148h-3.06zm-6.425 7.373a.5.5 0 010-1h6.534a.5.5 0 110 1h-6.534zm0 8.518a.5.5 0 110-1h6.534a.5.5 0 110 1h-6.534zm0-4.259a.5.5 0 110-1h6.534a.5.5 0 110 1h-6.534zm-3.943.532a1.264 1.264 0 11-.001-2.527 1.264 1.264 0 010 2.527zm0 4.93a1.264 1.264 0 11-.001-2.528 1.264 1.264 0 010 2.528zM5.265 10.899l.876.879 2.234-2.232a.5.5 0 11.707.708l-2.588 2.585a.5.5 0 01-.707 0l-1.23-1.234a.5.5 0 01.708-.706z" fill-rule="nonzero"></path></svg>