<svg viewBox="0 0 25 25">
<path
d="M9.651 11.225a31.29 31.29 0 01-.953-.105l-1.326 6.082-2.508-2.986-3.45 1.609c7.281 2.789 15.155 2.81 22.228 0l.085-.028-3.39-1.58-2.509 2.985-1.327-6.085c-.316.04-.634.075-.95.105L12.6 17.236l-2.949-6.011zm1.157.087l1.792 3.653 1.793-3.654c-1.194.069-2.39.07-3.585.001zm13.053 4.441l.08-.027.317.949-.273.09c-.513.203-1.029.392-1.549.567l-1.6 6.858-3.967-5.553c-.392.054-.784.1-1.178.139l-.109 6.018-2.988-2.27-3.094 2.26V18.77c-.392-.039-.784-.085-1.175-.139l-4.079 5.324-1.477-6.592a33.418 33.418 0 01-1.951-.696l.364-.931.15.058 1.216-6.084a31.472 31.472 0 01-1.736-.646l.376-.926a30.258 30.258 0 0022.554.089l.3-.1.316.948-.273.09a31.09 31.09 0 01-1.436.53l1.212 6.059zm-2.17-5.749c-1.38.422-2.782.745-4.197.97L18.372 15l1.692-2.014 2.452 1.143-.825-4.125zm-13.985.975a31.35 31.35 0 01-4.2-.963l-.822 4.113 2.452-1.143L6.828 15l.878-4.02zm13.622 6.702a30.567 30.567 0 01-3.354.783l2.39 3.346.964-4.13zM10.5 18.853v3.962l2.106-1.538 2.012 1.529.072-3.948a31.35 31.35 0 01-4.19-.005zm-3.301-.398a32.594 32.594 0 01-3.33-.76l.885 3.951 2.445-3.19zM22.62 2.07l-1.805 6.994-4.012-5.618c-.37.05-.74.094-1.11.13l-.112 6.02-2.988-2.271L9.5 9.584V3.57a31.948 31.948 0 01-1.172-.139L4.246 8.872 2.768 2.161a33.418 33.418 0 01-1.95-.695l.364-.932c7.346 2.879 15.312 2.93 22.46.092l.3-.1.316.948-.273.09c-.452.18-.906.348-1.364.505zm-1.126.362c-1.18.354-2.376.635-3.584.844l2.473 3.462 1.111-4.306zM10.5 3.653v3.963l2.106-1.54 2.012 1.53.073-3.948a31.35 31.35 0 01-4.191-.005zm-3.292-.396a32.594 32.594 0 01-3.343-.763l.889 4.035 2.454-3.272z"
fill-rule="nonzero"
></path></svg>