<svg width="66" height="24" viewBox="0 0 66 24" fill="none" xmlns="http://www.w3.org/2000/svg">
<path d="M0 20H4V24C1.79086 24 0 22.2091 0 20Z" fill="#A6732B"/>
<path d="M0 4C0 1.79086 1.79086 0 4 0H62C64.2091 0 66 1.79086 66 4V16C66 18.2091 64.2091 20 62 20H0V4Z" fill="white"/>
<path d="M0 4C0 1.79086 1.79086 0 4 0H62C64.2091 0 66 1.79086 66 4V16C66 18.2091 64.2091 20 62 20H0V4Z" fill="#E3AA49"/>
<path d="M9.87305 12.1426L12.041 5.46875H13.6699L10.5996 14H9.16406L6.10547 5.46875H7.72852L9.87305 12.1426ZM16.2012 14H14.7246V5.46875H16.2012V14ZM19.5059 10.8301V14H18.0234V5.46875H21.2871C22.2402 5.46875 22.9961 5.7168 23.5547 6.21289C24.1172 6.70898 24.3984 7.36523 24.3984 8.18164C24.3984 9.01758 24.123 9.66797 23.5723 10.1328C23.0254 10.5977 22.2578 10.8301 21.2695 10.8301H19.5059ZM19.5059 9.64062H21.2871C21.8145 9.64062 22.2168 9.51758 22.4941 9.27148C22.7715 9.02148 22.9102 8.66211 22.9102 8.19336C22.9102 7.73242 22.7695 7.36523 22.4883 7.0918C22.207 6.81445 21.8203 6.67188 21.3281 6.66406H19.5059V9.64062ZM31.6934 12.1426L33.8613 5.46875H35.4902L32.4199 14H30.9844L27.9258 5.46875H29.5488L31.6934 12.1426ZM40.7871 12.0137H37.4824L36.791 14H35.25L38.4727 5.46875H39.8027L43.0312 14H41.4844L40.7871 12.0137ZM37.8984 10.8184H40.3711L39.1348 7.2793L37.8984 10.8184ZM39.9023 4.95898H38.7188L37.1367 3.18359H38.7598L39.9023 4.95898ZM50.7715 14H49.2891L45.4863 7.94727V14H44.0039V5.46875H45.4863L49.3008 11.5449V5.46875H50.7715V14ZM59.0625 12.8926C58.7539 13.2949 58.3262 13.5996 57.7793 13.8066C57.2324 14.0137 56.6113 14.1172 55.916 14.1172C55.2012 14.1172 54.5684 13.9551 54.0176 13.6309C53.4668 13.3066 53.041 12.8438 52.7402 12.2422C52.4434 11.6367 52.2891 10.9316 52.2773 10.127V9.45898C52.2773 8.16992 52.5859 7.16406 53.2031 6.44141C53.8203 5.71484 54.6816 5.35156 55.7871 5.35156C56.7363 5.35156 57.4902 5.58594 58.0488 6.05469C58.6074 6.52344 58.9434 7.19922 59.0566 8.08203H57.6035C57.4395 7.05469 56.8438 6.54102 55.8164 6.54102C55.1523 6.54102 54.6465 6.78125 54.2988 7.26172C53.9551 7.73828 53.7773 8.43945 53.7656 9.36523V10.0215C53.7656 10.9434 53.959 11.6602 54.3457 12.1719C54.7363 12.6797 55.2773 12.9336 55.9688 12.9336C56.7266 12.9336 57.2656 12.7617 57.5859 12.418V10.748H55.8281V9.62305H59.0625V12.8926Z" fill="white"/>
</svg>
