<svg width="58" height="24" viewBox="0 0 58 24" fill="none" xmlns="http://www.w3.org/2000/svg">
<path d="M0 20H4V24C1.79086 24 0 22.2091 0 20Z" fill="#007C80"/>
<path d="M0 4C0 1.79086 1.79086 0 4 0H54C56.2091 0 58 1.79086 58 4V16C58 18.2091 56.2091 20 54 20H0V4Z" fill="white"/>
<path d="M0 4C0 1.79086 1.79086 0 4 0H54C56.2091 0 58 1.79086 58 4V16C58 18.2091 56.2091 20 54 20H0V4Z" fill="#CCCCCC" fill-opacity="0.3"/>
<path d="M0 4C0 1.79086 1.79086 0 4 0H54C56.2091 0 58 1.79086 58 4V16C58 18.2091 56.2091 20 54 20H0V4Z" fill="#009BA1" fill-opacity="0.65"/>
<path d="M9.87305 12.1426L12.041 5.46875H13.6699L10.5996 14H9.16406L6.10547 5.46875H7.72852L9.87305 12.1426ZM16.2012 14H14.7246V5.46875H16.2012V14ZM19.5059 10.8301V14H18.0234V5.46875H21.2871C22.2402 5.46875 22.9961 5.7168 23.5547 6.21289C24.1172 6.70898 24.3984 7.36523 24.3984 8.18164C24.3984 9.01758 24.123 9.66797 23.5723 10.1328C23.0254 10.5977 22.2578 10.8301 21.2695 10.8301H19.5059ZM19.5059 9.64062H21.2871C21.8145 9.64062 22.2168 9.51758 22.4941 9.27148C22.7715 9.02148 22.9102 8.66211 22.9102 8.19336C22.9102 7.73242 22.7695 7.36523 22.4883 7.0918C22.207 6.81445 21.8203 6.67188 21.3281 6.66406H19.5059V9.64062ZM28.6875 14V5.46875H31.6113C32.5762 5.46875 33.3105 5.66211 33.8145 6.04883C34.3184 6.43555 34.5703 7.01172 34.5703 7.77734C34.5703 8.16797 34.4648 8.51953 34.2539 8.83203C34.043 9.14453 33.7344 9.38672 33.3281 9.55859C33.7891 9.68359 34.1445 9.91992 34.3945 10.2676C34.6484 10.6113 34.7754 11.0254 34.7754 11.5098C34.7754 12.3105 34.5176 12.9258 34.002 13.3555C33.4902 13.7852 32.7559 14 31.7988 14H28.6875ZM30.1699 10.1504V12.8164H31.8164C32.2812 12.8164 32.6445 12.7012 32.9062 12.4707C33.168 12.2402 33.2988 11.9199 33.2988 11.5098C33.2988 10.623 32.8457 10.1699 31.9395 10.1504H30.1699ZM30.1699 9.06055H31.623C32.084 9.06055 32.4434 8.95703 32.7012 8.75C32.9629 8.53906 33.0938 8.24219 33.0938 7.85938C33.0938 7.4375 32.9727 7.13281 32.7305 6.94531C32.4922 6.75781 32.1191 6.66406 31.6113 6.66406H30.1699V9.06055ZM41.0332 12.0137H37.7285L37.0371 14H35.4961L38.7188 5.46875H40.0488L43.2773 14H41.7305L41.0332 12.0137ZM38.1445 10.8184H40.6172L39.3809 7.2793L38.1445 10.8184ZM38.6309 15.3945C38.6309 15.1875 38.6992 15.0137 38.8359 14.873C38.9766 14.7363 39.1758 14.668 39.4336 14.668C39.6914 14.668 39.8906 14.7363 40.0312 14.873C40.1719 15.0137 40.2422 15.1875 40.2422 15.3945C40.2422 15.6016 40.1719 15.7734 40.0312 15.9102C39.8906 16.0469 39.6914 16.1152 39.4336 16.1152C39.1758 16.1152 38.9766 16.0469 38.8359 15.9102C38.6992 15.7734 38.6309 15.6016 38.6309 15.3945ZM50.6309 11.2227C50.5449 12.1328 50.209 12.8438 49.623 13.3555C49.0371 13.8633 48.2578 14.1172 47.2852 14.1172C46.6055 14.1172 46.0059 13.957 45.4863 13.6367C44.9707 13.3125 44.5723 12.8535 44.291 12.2598C44.0098 11.666 43.8633 10.9766 43.8516 10.1914V9.39453C43.8516 8.58984 43.9941 7.88086 44.2793 7.26758C44.5645 6.6543 44.9727 6.18164 45.5039 5.84961C46.0391 5.51758 46.6562 5.35156 47.3555 5.35156C48.2969 5.35156 49.0547 5.60742 49.6289 6.11914C50.2031 6.63086 50.5371 7.35352 50.6309 8.28711H49.1543C49.084 7.67383 48.9043 7.23242 48.6152 6.96289C48.3301 6.68945 47.9102 6.55273 47.3555 6.55273C46.7109 6.55273 46.2148 6.78906 45.8672 7.26172C45.5234 7.73047 45.3477 8.41992 45.3398 9.33008V10.0859C45.3398 11.0078 45.5039 11.7109 45.832 12.1953C46.1641 12.6797 46.6484 12.9219 47.2852 12.9219C47.8672 12.9219 48.3047 12.791 48.5977 12.5293C48.8906 12.2676 49.0762 11.832 49.1543 11.2227H50.6309Z" fill="white"/>
</svg>
