<svg viewBox="0 0 50 51">
<path
d="M45 22.32V9.19C45 8.54 44.444 8 43.748 8H6.252C5.556 8 5 8.54 5 9.19v13.058l20.398 12.324L45 22.321zm2-1.25l.553-.345-.553-.461v.807zm1 1.734L27.317 35.731 48 48.227V22.804zM3 21.04v-.776l-.54.45.54.326zM45.411 49L2 22.773V49h43.411zM3 17.66V9.19C3 7.423 4.463 6 6.252 6h9.978l5.589-4.868C22.546.402 23.564 0 24.656 0c1.13 0 2.125.34 2.783 1.004L33.245 6h10.503C45.537 6 47 7.423 47 9.19v8.47l3 2.5V51H0V20.16l3-2.5zM19.274 6H30.18L26.08 2.468C25.777 2.166 25.293 2 24.656 2c-.572 0-1.078.2-1.472.592L19.274 6zm8.819 8C30.248 14 32 15.78 32 18.008a4 4 0 01-1.14 2.803l-4.636 4.878a1 1 0 01-1.443.006l-4.766-4.935A4.306 4.306 0 0119 18.008C19 15.813 20.72 14 22.907 14c.968 0 1.891.37 2.593.999A3.904 3.904 0 0128.093 14zm1.323 5.428c.382-.396.584-.883.584-1.42 0-1.13-.864-2.008-1.907-2.008a1.91 1.91 0 00-1.693 1.061 1 1 0 01-1.801 0A1.908 1.908 0 0022.907 16C21.848 16 21 16.894 21 18.008c0 .532.198 1.045.504 1.42l3.99 4.127 3.922-4.127z"
fill-rule="nonzero"
></path>
</svg>