<svg viewBox="0 0 54 44">
<path
d="M52.832 30H54v13H42V30h1v-6h1v-5.602l4.307-5.665.743.374c.418.21.98.63 1.528 1.31.89 1.103 1.422 2.541 1.422 4.318V24h.832v6zm-2 0v-4H45v4h5.832zm-39.943 7C4.439 33.82 0 27.177 0 19.499 0 8.73 8.731 0 19.5 0 30.27 0 39 8.73 39 19.499c0 7.678-4.437 14.32-10.888 17.501H38v6.075H1V37h9.889zM3 41.075h33V39H3v2.075zM19.5 2C9.836 2 2 9.835 2 19.499 2 29.164 9.836 37 19.5 37 29.165 37 37 29.164 37 19.499 37 9.834 29.166 2 19.5 2zM50 18.735c0-1.309-.369-2.307-.978-3.062a4.284 4.284 0 00-.235-.267L46 19.072V24h4v-5.265zM52 41v-9h-8v9h8zM19.5 6C26.956 6 33 12.044 33 19.499 33 26.957 26.957 33 19.5 33 12.044 33 6 26.957 6 19.499 6 12.044 12.045 6 19.5 6zm0 2C13.15 8 8 13.149 8 19.499 8 25.852 13.148 31 19.5 31 25.853 31 31 25.853 31 19.499 31 13.149 25.852 8 19.5 8z"
fill-rule="nonzero"
></path>
</svg>