<svg viewBox="0 0 55 41">
<path
d="M18.635 4.636a9.002 9.002 0 000 12.728 8.992 8.992 0 0012.722 0 9.004 9.004 0 000-12.729 8.994 8.994 0 00-12.722 0zm14.137-1.414c4.293 4.296 4.293 11.26 0 15.556-4.294 4.296-11.257 4.296-15.551 0-4.295-4.297-4.295-11.26 0-15.556 4.294-4.296 11.257-4.296 15.55 0zM45 26v-3.465a4 4 0 11-4 6.93 4 4 0 014-6.93V6.558l9.014 3.372-.145 7.075L47 14.195V26h-2a2 2 0 10-3.999-.002A2 2 0 0045 26zM2.877 34.27a8.29 8.29 0 00-.229.404c-.398.75-.636 1.485-.648 2.12-.015.903.42 1.569 1.584 2.066 1.248.532 1.547.393 7.754-3.224 4.299-2.505 7.515-3.7 11.178-3.634 3.042.054 5.307 1.278 6.849 3.267.942 1.217 1.43 2.43 1.613 3.284l-1.956.42a5.104 5.104 0 00-.244-.738 7.269 7.269 0 00-.994-1.74c-1.183-1.528-2.891-2.45-5.303-2.493-3.21-.058-6.127 1.026-10.136 3.362-.529.308-2.278 1.356-2.565 1.524-.974.573-1.702.97-2.387 1.288-1.83.852-3.28 1.084-4.593.523-1.912-.815-2.83-2.22-2.8-3.94.018-1 .349-2.018.881-3.022.21-.397.421-.736.605-1.003A4.153 4.153 0 011 30.78v-.297c0-.97.34-1.91.962-2.663l12.776-15.457 1.541 1.274L3.503 29.095A2.18 2.18 0 003 30.483v.297c0 1.132.879 2.088 2.048 2.207a2.334 2.334 0 001.702-.499l15.622-12.595 1.256 1.557L8.005 34.045a4.333 4.333 0 01-3.163.932 4.314 4.314 0 01-1.965-.706zM15.274 2.689l1.452-1.376 18 19-1.452 1.376-18-19zM51.929 14.05l.057-2.745L47 9.442v2.592l4.93 2.017z"
fill-rule="nonzero"
></path>
</svg>