<svg viewBox="0 0 56 53">
<path
d="M52.002 51V39.082a57.367 57.367 0 00-1.607 3.516c-.754 1.81-1.37 3.57-1.798 5.217-.298 1.145-.499 2.211-.593 3.185h3.998zm1.998.01V53H2v-2l.002-31H0v-3.98V15h.885c5.179-1.211 10.538-3.64 15.86-6.928A81.938 81.938 0 0024.42 2.69a69.043 69.043 0 002.154-1.77c.364-.311.614-.533.743-.652a.997.997 0 011.366 0c.129.119.38.341.743.653a69.027 69.027 0 002.154 1.77 81.923 81.923 0 007.674 5.38c5.322 3.289 10.682 5.717 15.86 6.928H56v5h-1.998v31.01H54zM4.002 51h4.382c-.102-.968-.317-2.028-.636-3.167-.46-1.644-1.122-3.401-1.934-5.21a55.555 55.555 0 00-1.812-3.668V51zm6.392 0h35.601c.098-1.141.324-2.374.666-3.688.454-1.746 1.1-3.591 1.887-5.483a59.449 59.449 0 012.062-4.422c-4.031-1.85-7.047-4.452-9.162-7.614a20.67 20.67 0 01-3.021-7.154 19.508 19.508 0 01-.39-2.639H18.96l-.016.178c-.07.762-.2 1.594-.405 2.476a19.948 19.948 0 01-3.258 7.168c-2.274 3.158-5.514 5.753-9.84 7.597l.292.533c.65 1.2 1.3 2.498 1.906 3.852.85 1.894 1.545 3.74 2.035 5.49.37 1.32.615 2.558.72 3.706zm41.608-15.163V20H40.039c.052.615.158 1.364.342 2.216a18.685 18.685 0 002.73 6.465c2.005 3 4.915 5.447 8.89 7.156zm-48 .012c4.325-1.717 7.484-4.18 9.656-7.196a17.96 17.96 0 003.3-8.653H4.002v15.849zM48.48 15c-3.417-1.342-6.858-3.114-10.278-5.227a83.906 83.906 0 01-7.862-5.512A71.017 71.017 0 0128 2.333l-.124.107a71.033 71.033 0 01-2.216 1.82 83.922 83.922 0 01-7.863 5.513c-3.42 2.113-6.86 3.885-10.278 5.227H48.48zM2 18h52v-1H2v1z"
fill-rule="nonzero"
></path>
</svg>