<?xml version="1.0" encoding="UTF-8"?>
<svg width="199px" height="47px" viewBox="0 0 199 47" version="1.1" xmlns="http://www.w3.org/2000/svg" xmlns:xlink="http://www.w3.org/1999/xlink">
    <!-- Generator: Sketch 55.2 (78181) - https://sketchapp.com -->
    <title>rating1</title>
    <desc>Created with Sketch.</desc>
    <g id="Page-1" stroke="none" stroke-width="1" fill="none" fill-rule="evenodd">
        <g id="bar" transform="translate(0.000000, 41.000000)">
            <rect id="Rectangle" fill="#D8D8D8" x="0" y="0" width="19" height="6"></rect>
            <rect id="Rectangle-Copy" fill="#D8D8D8" x="20" y="0" width="19" height="6"></rect>
            <rect id="Rectangle-Copy-2" fill="#D8D8D8" x="40" y="0" width="19" height="6"></rect>
            <rect id="Rectangle-Copy-3" fill="#D8D8D8" x="60" y="0" width="19" height="6"></rect>
            <rect id="Rectangle-Copy-4" fill="#D8D8D8" x="80" y="0" width="19" height="6"></rect>
            <rect id="Rectangle-Copy-5" fill="#4BAA3B" x="100" y="0" width="19" height="6"></rect>
            <rect id="Rectangle-Copy-6" fill="#4BAA3B" x="120" y="0" width="19" height="6"></rect>
            <rect id="Rectangle-Copy-7" fill="#4BAA3B" x="140" y="0" width="19" height="6"></rect>
            <rect id="Rectangle-Copy-8" fill="#4BAA3B" x="160" y="0" width="19" height="6"></rect>
            <rect id="Rectangle-Copy-9" fill="#4BAA3B" x="180" y="0" width="19" height="6"></rect>
        </g>
        <g id="stars" transform="translate(1.000000, 18.000000)" fill-rule="nonzero">
            <path d="M5.57323414,5.04767299 C5.57323414,5.04767299 2.46697384,5.43595553 0.428490511,5.6300968 C0.234349242,5.6300968 0.0402079733,5.82423807 0.0402079733,5.9213087 C-0.0568626612,6.11544997 0.0402079733,6.30959124 0.137278608,6.40666188 C1.69040876,7.76565076 3.92303335,9.90120472 3.92303335,9.90120472 C3.92303335,9.90120472 3.34060955,12.9103944 2.85525637,14.9488777 C2.85525637,15.143019 2.85525637,15.3371602 3.04939764,15.4342309 C3.24353891,15.5313015 3.43768018,15.5313015 3.53475081,15.4342309 C5.37909287,14.3664539 8,12.9103944 8,12.9103944 C8,12.9103944 10.7179778,14.4635245 12.4652492,15.4342309 C12.6593905,15.5313015 12.8535317,15.5313015 12.9506024,15.4342309 C13.1447436,15.3371602 13.1447436,15.143019 13.1447436,14.9488777 C12.7564611,12.9103944 12.0769666,9.90120472 12.0769666,9.90120472 C12.0769666,9.90120472 14.4066619,7.86272139 15.8627214,6.40666188 C15.959792,6.30959124 16.0568627,6.11544997 15.959792,5.9213087 C15.8627214,5.72716743 15.7656508,5.6300968 15.5715095,5.6300968 C13.5330262,5.43595553 10.4267659,5.04767299 10.4267659,5.04767299 C10.4267659,5.04767299 9.16484761,2.23262459 8.2912119,0.291211903 C8.19414127,0.0970706345 8,7.10542736e-15 7.80585873,7.10542736e-15 C7.61171746,7.10542736e-15 7.41757619,0.0970706345 7.32050556,0.291211903 C6.83515239,2.23262459 5.57323414,5.04767299 5.57323414,5.04767299" id="Path" fill="#D9D9D9"></path>
            <path d="M41.5732341,5.04767299 C41.5732341,5.04767299 38.4669738,5.43595553 36.4284905,5.6300968 C36.2343492,5.6300968 36.040208,5.82423807 36.040208,5.9213087 C35.9431373,6.11544997 36.040208,6.30959124 36.1372786,6.40666188 C37.6904088,7.76565076 39.9230334,9.90120472 39.9230334,9.90120472 C39.9230334,9.90120472 39.3406095,12.9103944 38.8552564,14.9488777 C38.8552564,15.143019 38.8552564,15.3371602 39.0493976,15.4342309 C39.2435389,15.5313015 39.4376802,15.5313015 39.5347508,15.4342309 C41.3790929,14.3664539 44,12.9103944 44,12.9103944 C44,12.9103944 46.7179778,14.4635245 48.4652492,15.4342309 C48.6593905,15.5313015 48.8535317,15.5313015 48.9506024,15.4342309 C49.1447436,15.3371602 49.1447436,15.143019 49.1447436,14.9488777 C48.7564611,12.9103944 48.0769666,9.90120472 48.0769666,9.90120472 C48.0769666,9.90120472 50.4066619,7.86272139 51.8627214,6.40666188 C51.959792,6.30959124 52.0568627,6.11544997 51.959792,5.9213087 C51.8627214,5.72716743 51.7656508,5.6300968 51.5715095,5.6300968 C49.5330262,5.43595553 46.4267659,5.04767299 46.4267659,5.04767299 C46.4267659,5.04767299 45.1648476,2.23262459 44.2912119,0.291211903 C44.1941413,0.0970706345 44,7.10542736e-15 43.8058587,7.10542736e-15 C43.6117175,7.10542736e-15 43.4175762,0.0970706345 43.3205056,0.291211903 C42.8351524,2.23262459 41.5732341,5.04767299 41.5732341,5.04767299" id="Path-Copy" fill="#D9D9D9"></path>
            <path d="M23.5732341,5.04767299 C23.5732341,5.04767299 20.4669738,5.43595553 18.4284905,5.6300968 C18.2343492,5.6300968 18.040208,5.82423807 18.040208,5.9213087 C17.9431373,6.11544997 18.040208,6.30959124 18.1372786,6.40666188 C19.6904088,7.76565076 21.9230334,9.90120472 21.9230334,9.90120472 C21.9230334,9.90120472 21.3406095,12.9103944 20.8552564,14.9488777 C20.8552564,15.143019 20.8552564,15.3371602 21.0493976,15.4342309 C21.2435389,15.5313015 21.4376802,15.5313015 21.5347508,15.4342309 C23.3790929,14.3664539 26,12.9103944 26,12.9103944 C26,12.9103944 28.7179778,14.4635245 30.4652492,15.4342309 C30.6593905,15.5313015 30.8535317,15.5313015 30.9506024,15.4342309 C31.1447436,15.3371602 31.1447436,15.143019 31.1447436,14.9488777 C30.7564611,12.9103944 30.0769666,9.90120472 30.0769666,9.90120472 C30.0769666,9.90120472 32.4066619,7.86272139 33.8627214,6.40666188 C33.959792,6.30959124 34.0568627,6.11544997 33.959792,5.9213087 C33.8627214,5.72716743 33.7656508,5.6300968 33.5715095,5.6300968 C31.5330262,5.43595553 28.4267659,5.04767299 28.4267659,5.04767299 C28.4267659,5.04767299 27.1648476,2.23262459 26.2912119,0.291211903 C26.1941413,0.0970706345 26,7.10542736e-15 25.8058587,7.10542736e-15 C25.6117175,7.10542736e-15 25.4175762,0.0970706345 25.3205056,0.291211903 C24.8351524,2.23262459 23.5732341,5.04767299 23.5732341,5.04767299" id="Path" fill="#D9D9D9"></path>
            <path d="M59.5732341,5.04767299 C59.5732341,5.04767299 56.4669738,5.43595553 54.4284905,5.6300968 C54.2343492,5.6300968 54.040208,5.82423807 54.040208,5.9213087 C53.9431373,6.11544997 54.040208,6.30959124 54.1372786,6.40666188 C55.6904088,7.76565076 57.9230334,9.90120472 57.9230334,9.90120472 C57.9230334,9.90120472 57.3406095,12.9103944 56.8552564,14.9488777 C56.8552564,15.143019 56.8552564,15.3371602 57.0493976,15.4342309 C57.2435389,15.5313015 57.4376802,15.5313015 57.5347508,15.4342309 C59.3790929,14.3664539 62,12.9103944 62,12.9103944 C62,12.9103944 64.7179778,14.4635245 66.4652492,15.4342309 C66.6593905,15.5313015 66.8535317,15.5313015 66.9506024,15.4342309 C67.1447436,15.3371602 67.1447436,15.143019 67.1447436,14.9488777 C66.7564611,12.9103944 66.0769666,9.90120472 66.0769666,9.90120472 C66.0769666,9.90120472 68.4066619,7.86272139 69.8627214,6.40666188 C69.959792,6.30959124 70.0568627,6.11544997 69.959792,5.9213087 C69.8627214,5.72716743 69.7656508,5.6300968 69.5715095,5.6300968 C67.5330262,5.43595553 64.4267659,5.04767299 64.4267659,5.04767299 C64.4267659,5.04767299 63.1648476,2.23262459 62.2912119,0.291211903 C62.1941413,0.0970706345 62,7.10542736e-15 61.8058587,7.10542736e-15 C61.6117175,7.10542736e-15 61.4175762,0.0970706345 61.3205056,0.291211903 C60.8351524,2.23262459 59.5732341,5.04767299 59.5732341,5.04767299" id="Path-Copy-2" fill="#D9D9D9"></path>
            <path d="M77.5732341,5.04767299 C77.5732341,5.04767299 74.4669738,5.43595553 72.4284905,5.6300968 C72.2343492,5.6300968 72.040208,5.82423807 72.040208,5.9213087 C71.9431373,6.11544997 72.040208,6.30959124 72.1372786,6.40666188 C73.6904088,7.76565076 75.9230334,9.90120472 75.9230334,9.90120472 C75.9230334,9.90120472 75.3406095,12.9103944 74.8552564,14.9488777 C74.8552564,15.143019 74.8552564,15.3371602 75.0493976,15.4342309 C75.2435389,15.5313015 75.4376802,15.5313015 75.5347508,15.4342309 C77.3790929,14.3664539 80,12.9103944 80,12.9103944 C80,12.9103944 82.7179778,14.4635245 84.4652492,15.4342309 C84.6593905,15.5313015 84.8535317,15.5313015 84.9506024,15.4342309 C85.1447436,15.3371602 85.1447436,15.143019 85.1447436,14.9488777 C84.7564611,12.9103944 84.0769666,9.90120472 84.0769666,9.90120472 C84.0769666,9.90120472 86.4066619,7.86272139 87.8627214,6.40666188 C87.959792,6.30959124 88.0568627,6.11544997 87.959792,5.9213087 C87.8627214,5.72716743 87.7656508,5.6300968 87.5715095,5.6300968 C85.5330262,5.43595553 82.4267659,5.04767299 82.4267659,5.04767299 C82.4267659,5.04767299 81.1648476,2.23262459 80.2912119,0.291211903 C80.1941413,0.0970706345 80,7.10542736e-15 79.8058587,7.10542736e-15 C79.6117175,7.10542736e-15 79.4175762,0.0970706345 79.3205056,0.291211903 C78.8351524,2.23262459 77.5732341,5.04767299 77.5732341,5.04767299" id="Path-Copy-3" fill="#D9D9D9"></path>
            <path d="M95.5732341,5.04767299 C95.5732341,5.04767299 92.4669738,5.43595553 90.4284905,5.6300968 C90.2343492,5.6300968 90.040208,5.82423807 90.040208,5.9213087 C89.9431373,6.11544997 90.040208,6.30959124 90.1372786,6.40666188 C91.6904088,7.76565076 93.9230334,9.90120472 93.9230334,9.90120472 C93.9230334,9.90120472 93.3406095,12.9103944 92.8552564,14.9488777 C92.8552564,15.143019 92.8552564,15.3371602 93.0493976,15.4342309 C93.2435389,15.5313015 93.4376802,15.5313015 93.5347508,15.4342309 C95.3790929,14.3664539 98,12.9103944 98,12.9103944 C98,12.9103944 100.717978,14.4635245 102.465249,15.4342309 C102.65939,15.5313015 102.853532,15.5313015 102.950602,15.4342309 C103.144744,15.3371602 103.144744,15.143019 103.144744,14.9488777 C102.756461,12.9103944 102.076967,9.90120472 102.076967,9.90120472 C102.076967,9.90120472 104.406662,7.86272139 105.862721,6.40666188 C105.959792,6.30959124 106.056863,6.11544997 105.959792,5.9213087 C105.862721,5.72716743 105.765651,5.6300968 105.571509,5.6300968 C103.533026,5.43595553 100.426766,5.04767299 100.426766,5.04767299 C100.426766,5.04767299 99.1648476,2.23262459 98.2912119,0.291211903 C98.1941413,0.0970706345 98,8.8817842e-15 97.8058587,8.8817842e-15 C97.6117175,8.8817842e-15 97.4175762,0.0970706345 97.3205056,0.291211903 C96.8351524,2.23262459 95.5732341,5.04767299 95.5732341,5.04767299" id="Path-Copy-4" fill="#FABB00"></path>
            <path d="M131.573234,5.04767299 C131.573234,5.04767299 128.466974,5.43595553 126.428491,5.6300968 C126.234349,5.6300968 126.040208,5.82423807 126.040208,5.9213087 C125.943137,6.11544997 126.040208,6.30959124 126.137279,6.40666188 C127.690409,7.76565076 129.923033,9.90120472 129.923033,9.90120472 C129.923033,9.90120472 129.34061,12.9103944 128.855256,14.9488777 C128.855256,15.143019 128.855256,15.3371602 129.049398,15.4342309 C129.243539,15.5313015 129.43768,15.5313015 129.534751,15.4342309 C131.379093,14.3664539 134,12.9103944 134,12.9103944 C134,12.9103944 136.717978,14.4635245 138.465249,15.4342309 C138.65939,15.5313015 138.853532,15.5313015 138.950602,15.4342309 C139.144744,15.3371602 139.144744,15.143019 139.144744,14.9488777 C138.756461,12.9103944 138.076967,9.90120472 138.076967,9.90120472 C138.076967,9.90120472 140.406662,7.86272139 141.862721,6.40666188 C141.959792,6.30959124 142.056863,6.11544997 141.959792,5.9213087 C141.862721,5.72716743 141.765651,5.6300968 141.571509,5.6300968 C139.533026,5.43595553 136.426766,5.04767299 136.426766,5.04767299 C136.426766,5.04767299 135.164848,2.23262459 134.291212,0.291211903 C134.194141,0.0970706345 134,8.8817842e-15 133.805859,8.8817842e-15 C133.611717,8.8817842e-15 133.417576,0.0970706345 133.320506,0.291211903 C132.835152,2.23262459 131.573234,5.04767299 131.573234,5.04767299" id="Path-Copy-5" fill="#FABB00"></path>
            <path d="M113.573234,5.04767299 C113.573234,5.04767299 110.466974,5.43595553 108.428491,5.6300968 C108.234349,5.6300968 108.040208,5.82423807 108.040208,5.9213087 C107.943137,6.11544997 108.040208,6.30959124 108.137279,6.40666188 C109.690409,7.76565076 111.923033,9.90120472 111.923033,9.90120472 C111.923033,9.90120472 111.34061,12.9103944 110.855256,14.9488777 C110.855256,15.143019 110.855256,15.3371602 111.049398,15.4342309 C111.243539,15.5313015 111.43768,15.5313015 111.534751,15.4342309 C113.379093,14.3664539 116,12.9103944 116,12.9103944 C116,12.9103944 118.717978,14.4635245 120.465249,15.4342309 C120.65939,15.5313015 120.853532,15.5313015 120.950602,15.4342309 C121.144744,15.3371602 121.144744,15.143019 121.144744,14.9488777 C120.756461,12.9103944 120.076967,9.90120472 120.076967,9.90120472 C120.076967,9.90120472 122.406662,7.86272139 123.862721,6.40666188 C123.959792,6.30959124 124.056863,6.11544997 123.959792,5.9213087 C123.862721,5.72716743 123.765651,5.6300968 123.571509,5.6300968 C121.533026,5.43595553 118.426766,5.04767299 118.426766,5.04767299 C118.426766,5.04767299 117.164848,2.23262459 116.291212,0.291211903 C116.194141,0.0970706345 116,7.10542736e-15 115.805859,7.10542736e-15 C115.611717,7.10542736e-15 115.417576,0.0970706345 115.320506,0.291211903 C114.835152,2.23262459 113.573234,5.04767299 113.573234,5.04767299" id="Path-Copy-6" fill="#FABB00"></path>
            <path d="M149.573234,5.04767299 C149.573234,5.04767299 146.466974,5.43595553 144.428491,5.6300968 C144.234349,5.6300968 144.040208,5.82423807 144.040208,5.9213087 C143.943137,6.11544997 144.040208,6.30959124 144.137279,6.40666188 C145.690409,7.76565076 147.923033,9.90120472 147.923033,9.90120472 C147.923033,9.90120472 147.34061,12.9103944 146.855256,14.9488777 C146.855256,15.143019 146.855256,15.3371602 147.049398,15.4342309 C147.243539,15.5313015 147.43768,15.5313015 147.534751,15.4342309 C149.379093,14.3664539 152,12.9103944 152,12.9103944 C152,12.9103944 154.717978,14.4635245 156.465249,15.4342309 C156.65939,15.5313015 156.853532,15.5313015 156.950602,15.4342309 C157.144744,15.3371602 157.144744,15.143019 157.144744,14.9488777 C156.756461,12.9103944 156.076967,9.90120472 156.076967,9.90120472 C156.076967,9.90120472 158.406662,7.86272139 159.862721,6.40666188 C159.959792,6.30959124 160.056863,6.11544997 159.959792,5.9213087 C159.862721,5.72716743 159.765651,5.6300968 159.571509,5.6300968 C157.533026,5.43595553 154.426766,5.04767299 154.426766,5.04767299 C154.426766,5.04767299 153.164848,2.23262459 152.291212,0.291211903 C152.194141,0.0970706345 152,7.10542736e-15 151.805859,7.10542736e-15 C151.611717,7.10542736e-15 151.417576,0.0970706345 151.320506,0.291211903 C150.835152,2.23262459 149.573234,5.04767299 149.573234,5.04767299" id="Path-Copy-7" fill="#FABB00"></path>
            <path d="M167.573234,5.04767299 C167.573234,5.04767299 164.466974,5.43595553 162.428491,5.6300968 C162.234349,5.6300968 162.040208,5.82423807 162.040208,5.9213087 C161.943137,6.11544997 162.040208,6.30959124 162.137279,6.40666188 C163.690409,7.76565076 165.923033,9.90120472 165.923033,9.90120472 C165.923033,9.90120472 165.34061,12.9103944 164.855256,14.9488777 C164.855256,15.143019 164.855256,15.3371602 165.049398,15.4342309 C165.243539,15.5313015 165.43768,15.5313015 165.534751,15.4342309 C167.379093,14.3664539 170,12.9103944 170,12.9103944 C170,12.9103944 172.717978,14.4635245 174.465249,15.4342309 C174.65939,15.5313015 174.853532,15.5313015 174.950602,15.4342309 C175.144744,15.3371602 175.144744,15.143019 175.144744,14.9488777 C174.756461,12.9103944 174.076967,9.90120472 174.076967,9.90120472 C174.076967,9.90120472 176.406662,7.86272139 177.862721,6.40666188 C177.959792,6.30959124 178.056863,6.11544997 177.959792,5.9213087 C177.862721,5.72716743 177.765651,5.6300968 177.571509,5.6300968 C175.533026,5.43595553 172.426766,5.04767299 172.426766,5.04767299 C172.426766,5.04767299 171.164848,2.23262459 170.291212,0.291211903 C170.194141,0.0970706345 170,7.10542736e-15 169.805859,7.10542736e-15 C169.611717,7.10542736e-15 169.417576,0.0970706345 169.320506,0.291211903 C168.835152,2.23262459 167.573234,5.04767299 167.573234,5.04767299" id="Path-Copy-8" fill="#FABB00"></path>
        </g>
        <g id="stars" transform="translate(1.000000, 0.000000)" fill-rule="nonzero">
            <path d="M68.8765799,4.41671387 C68.8765799,4.41671387 66.1586021,4.75646109 64.3749292,4.9263347 C64.2050556,4.9263347 64.035182,5.09620831 64.035182,5.18114511 C63.9502452,5.35101873 64.035182,5.52089234 64.1201188,5.60582914 C65.4791077,6.79494441 67.4326542,8.66355413 67.4326542,8.66355413 C67.4326542,8.66355413 66.9230334,11.2965951 66.4983493,13.080268 C66.4983493,13.2501416 66.4983493,13.4200152 66.6682229,13.504952 C66.8380965,13.5898888 67.0079702,13.5898888 67.092907,13.504952 C68.7067063,12.5706472 71,11.2965951 71,11.2965951 C71,11.2965951 73.3782305,12.655584 74.907093,13.504952 C75.0769666,13.5898888 75.2468403,13.5898888 75.3317771,13.504952 C75.5016507,13.4200152 75.5016507,13.2501416 75.5016507,13.080268 C75.1619035,11.2965951 74.5673458,8.66355413 74.5673458,8.66355413 C74.5673458,8.66355413 76.6058291,6.87988122 77.8798812,5.60582914 C77.964818,5.52089234 78.0497548,5.35101873 77.964818,5.18114511 C77.8798812,5.0112715 77.7949444,4.9263347 77.6250708,4.9263347 C75.8413979,4.75646109 73.1234201,4.41671387 73.1234201,4.41671387 C73.1234201,4.41671387 72.0192417,1.95354652 71.2548104,0.254810415 C71.1698736,0.0849368052 71,7.10542736e-15 70.8301264,7.10542736e-15 C70.6602528,7.10542736e-15 70.4903792,0.0849368052 70.4054424,0.254810415 C70.0656951,1.95354652 68.8765799,4.41671387 68.8765799,4.41671387" id="Path" fill="#D9D9D9"></path>
            <path d="M48.3704344,4.88335745 C48.2025973,4.88335745 48.0347602,5.05119456 48.0347602,5.13511311 C47.9508417,5.30295021 48.0347602,5.47078731 48.1186788,5.55470587 C49.4613756,6.72956559 51.3915023,8.57577373 51.3915023,8.57577373 C51.3915023,8.57577373 50.887991,11.1772488 50.4683982,12.9395384 C50.4683982,13.1073755 50.4683982,13.2752126 50.6362353,13.3591312 C50.8040724,13.4430497 50.9719095,13.4430497 51.0558281,13.3591312 C52.6502806,12.4360271 54.9160814,11.1772488 54.9160814,11.1772488 C54.9160814,11.1772488 57.3497194,12.6038642 58.9441719,13.4430497 C59.112009,13.5269683 59.2798461,13.5269683 59.3637647,13.4430497 C59.5316018,13.3591312 59.5316018,13.1912941 59.5316018,13.023457 C59.1959276,11.2611674 58.6084977,8.65969228 58.6084977,8.65969228 C58.6084977,8.65969228 60.622543,6.89740269 61.8813212,5.63862442 C61.9652398,5.55470587 62.0491583,5.38686876 61.9652398,5.21903166 C61.8813212,5.05119456 61.7974027,4.967276 61.6295656,4.967276 C59.867276,4.7994389 57.1818823,4.46376469 57.1818823,4.46376469 C57.1818823,4.46376469 56.0909412,2.03012669 55.3356742,0.351755655 C55.2517557,0.183918552 55.0839186,0.1 54.9160814,0.1 C54.7482443,0.1 54.5804072,0.183918552 54.4964887,0.351755655 C53.9090588,1.94620814 52.8181177,4.37984614 52.8181177,4.37984614 C52.8181177,4.37984614 50.132724,4.71552035 48.3704344,4.88335745 Z" id="Path" fill="#D9D9D9"></path>
            <path d="M36.8765799,4.41671387 C36.8765799,4.41671387 34.1586021,4.75646109 32.3749292,4.9263347 C32.2050556,4.9263347 32.035182,5.09620831 32.035182,5.18114511 C31.9502452,5.35101873 32.035182,5.52089234 32.1201188,5.60582914 C33.4791077,6.79494441 35.4326542,8.66355413 35.4326542,8.66355413 C35.4326542,8.66355413 34.9230334,11.2965951 34.4983493,13.080268 C34.4983493,13.2501416 34.4983493,13.4200152 34.6682229,13.504952 C34.8380965,13.5898888 35.0079702,13.5898888 35.092907,13.504952 C36.7067063,12.5706472 39,11.2965951 39,11.2965951 C39,11.2965951 41.3782305,12.655584 42.907093,13.504952 C43.0769666,13.5898888 43.2468403,13.5898888 43.3317771,13.504952 C43.5016507,13.4200152 43.5016507,13.2501416 43.5016507,13.080268 C43.1619035,11.2965951 42.5673458,8.66355413 42.5673458,8.66355413 C42.5673458,8.66355413 44.6058291,6.87988122 45.8798812,5.60582914 C45.964818,5.52089234 46.0497548,5.35101873 45.964818,5.18114511 C45.8798812,5.0112715 45.7949444,4.9263347 45.6250708,4.9263347 C43.8413979,4.75646109 41.1234201,4.41671387 41.1234201,4.41671387 C41.1234201,4.41671387 40.0192417,1.95354652 39.2548104,0.254810415 C39.1698736,0.0849368052 39,7.10542736e-15 38.8301264,7.10542736e-15 C38.6602528,7.10542736e-15 38.4903792,0.0849368052 38.4054424,0.254810415 C37.9807583,1.95354652 36.8765799,4.41671387 36.8765799,4.41671387" id="Path" fill="#D9D9D9"></path>
            <path d="M20.8765799,4.41671387 C20.8765799,4.41671387 18.1586021,4.75646109 16.3749292,4.9263347 C16.2050556,4.9263347 16.035182,5.09620831 16.035182,5.18114511 C15.9502452,5.35101873 16.035182,5.52089234 16.1201188,5.60582914 C17.4791077,6.79494441 19.4326542,8.66355413 19.4326542,8.66355413 C19.4326542,8.66355413 18.9230334,11.2965951 18.4983493,13.080268 C18.4983493,13.2501416 18.4983493,13.4200152 18.6682229,13.504952 C18.8380965,13.5898888 19.0079702,13.5898888 19.092907,13.504952 C20.7067063,12.5706472 23,11.2965951 23,11.2965951 C23,11.2965951 25.3782305,12.655584 26.907093,13.504952 C27.0769666,13.5898888 27.2468403,13.5898888 27.3317771,13.504952 C27.5016507,13.4200152 27.5016507,13.2501416 27.5016507,13.080268 C27.1619035,11.2965951 26.5673458,8.66355413 26.5673458,8.66355413 C26.5673458,8.66355413 28.6058291,6.87988122 29.8798812,5.60582914 C29.964818,5.52089234 30.0497548,5.35101873 29.964818,5.18114511 C29.8798812,5.0112715 29.7949444,4.9263347 29.6250708,4.9263347 C27.8413979,4.75646109 25.1234201,4.41671387 25.1234201,4.41671387 C25.1234201,4.41671387 24.0192417,1.95354652 23.2548104,0.254810415 C23.1698736,0.0849368052 23,0 22.8301264,0 C22.6602528,0 22.4903792,0.0849368052 22.4054424,0.254810415 C21.9807583,1.95354652 20.8765799,4.41671387 20.8765799,4.41671387" id="Path" fill="#D9D9D9"></path>
            <path d="M4.87657987,4.41671387 C4.87657987,4.41671387 2.15860211,4.75646109 0.374929197,4.9263347 C0.205055587,4.9263347 0.0351819766,5.09620831 0.0351819766,5.18114511 C-0.0497548285,5.35101873 0.0351819766,5.52089234 0.120118782,5.60582914 C1.47910766,6.79494441 3.43265418,8.66355413 3.43265418,8.66355413 C3.43265418,8.66355413 2.92303335,11.2965951 2.49834933,13.080268 C2.49834933,13.2501416 2.49834933,13.4200152 2.66822294,13.504952 C2.83809655,13.5898888 3.00797016,13.5898888 3.09290696,13.504952 C4.70670626,12.5706472 7,11.2965951 7,11.2965951 C7,11.2965951 9.37823054,12.655584 10.907093,13.504952 C11.0769666,13.5898888 11.2468403,13.5898888 11.3317771,13.504952 C11.5016507,13.4200152 11.5016507,13.2501416 11.5016507,13.080268 C11.1619035,11.2965951 10.5673458,8.66355413 10.5673458,8.66355413 C10.5673458,8.66355413 12.6058291,6.87988122 13.8798812,5.60582914 C13.964818,5.52089234 14.0497548,5.35101873 13.964818,5.18114511 C13.8798812,5.0112715 13.7949444,4.9263347 13.6250708,4.9263347 C11.8413979,4.75646109 9.12342013,4.41671387 9.12342013,4.41671387 C9.12342013,4.41671387 8.01924166,1.95354652 7.25481042,0.254810415 C7.16987361,0.0849368052 7,7.10542736e-15 6.83012639,7.10542736e-15 C6.66025278,7.10542736e-15 6.49037917,0.0849368052 6.40544236,0.254810415 C5.98075834,1.95354652 4.87657987,4.41671387 4.87657987,4.41671387" id="Path" fill="#D9D9D9"></path>
            <path d="M148.87658,4.41671387 C148.87658,4.41671387 146.158602,4.75646109 144.374929,4.9263347 C144.205056,4.9263347 144.035182,5.09620831 144.035182,5.18114511 C143.950245,5.35101873 144.035182,5.52089234 144.120119,5.60582914 C145.479108,6.79494441 147.432654,8.66355413 147.432654,8.66355413 C147.432654,8.66355413 146.923033,11.2965951 146.498349,13.080268 C146.498349,13.2501416 146.498349,13.4200152 146.668223,13.504952 C146.838097,13.5898888 147.00797,13.5898888 147.092907,13.504952 C148.706706,12.5706472 151,11.2965951 151,11.2965951 C151,11.2965951 153.378231,12.655584 154.907093,13.504952 C155.076967,13.5898888 155.24684,13.5898888 155.331777,13.504952 C155.501651,13.4200152 155.501651,13.2501416 155.501651,13.080268 C155.161903,11.2965951 154.567346,8.66355413 154.567346,8.66355413 C154.567346,8.66355413 156.605829,6.87988122 157.879881,5.60582914 C157.964818,5.52089234 158.049755,5.35101873 157.964818,5.18114511 C157.879881,5.0112715 157.794944,4.9263347 157.625071,4.9263347 C155.841398,4.75646109 153.12342,4.41671387 153.12342,4.41671387 C153.12342,4.41671387 152.019242,1.95354652 151.25481,0.254810415 C151.169874,0.0849368052 151,7.10542736e-15 150.830126,7.10542736e-15 C150.660253,7.10542736e-15 150.490379,0.0849368052 150.405442,0.254810415 C149.980758,1.95354652 148.87658,4.41671387 148.87658,4.41671387" id="Path" fill="#FABB00"></path>
            <path d="M132.87658,4.41671387 C132.87658,4.41671387 130.158602,4.75646109 128.374929,4.9263347 C128.205056,4.9263347 128.035182,5.09620831 128.035182,5.18114511 C127.950245,5.35101873 128.035182,5.52089234 128.120119,5.60582914 C129.479108,6.79494441 131.432654,8.66355413 131.432654,8.66355413 C131.432654,8.66355413 130.923033,11.2965951 130.498349,13.080268 C130.498349,13.2501416 130.498349,13.4200152 130.668223,13.504952 C130.838097,13.5898888 131.00797,13.5898888 131.092907,13.504952 C132.706706,12.5706472 135,11.2965951 135,11.2965951 C135,11.2965951 137.378231,12.655584 138.907093,13.504952 C139.076967,13.5898888 139.24684,13.5898888 139.331777,13.504952 C139.501651,13.4200152 139.501651,13.2501416 139.501651,13.080268 C139.161903,11.2965951 138.567346,8.66355413 138.567346,8.66355413 C138.567346,8.66355413 140.605829,6.87988122 141.879881,5.60582914 C141.964818,5.52089234 142.049755,5.35101873 141.964818,5.18114511 C141.879881,5.0112715 141.794944,4.9263347 141.625071,4.9263347 C139.841398,4.75646109 137.12342,4.41671387 137.12342,4.41671387 C137.12342,4.41671387 136.019242,1.95354652 135.25481,0.254810415 C135.169874,0.0849368052 135,7.10542736e-15 134.830126,7.10542736e-15 C134.660253,7.10542736e-15 134.490379,0.0849368052 134.405442,0.254810415 C133.980758,1.95354652 132.87658,4.41671387 132.87658,4.41671387" id="Path" fill="#FABB00"></path>
            <path d="M116.87658,4.41671387 C116.87658,4.41671387 114.158602,4.75646109 112.374929,4.9263347 C112.205056,4.9263347 112.035182,5.09620831 112.035182,5.18114511 C111.950245,5.35101873 112.035182,5.52089234 112.120119,5.60582914 C113.479108,6.79494441 115.432654,8.66355413 115.432654,8.66355413 C115.432654,8.66355413 114.923033,11.2965951 114.498349,13.080268 C114.498349,13.2501416 114.498349,13.4200152 114.668223,13.504952 C114.838097,13.5898888 115.00797,13.5898888 115.092907,13.504952 C116.706706,12.5706472 119,11.2965951 119,11.2965951 C119,11.2965951 121.378231,12.655584 122.907093,13.504952 C123.076967,13.5898888 123.24684,13.5898888 123.331777,13.504952 C123.501651,13.4200152 123.501651,13.2501416 123.501651,13.080268 C123.161903,11.2965951 122.567346,8.66355413 122.567346,8.66355413 C122.567346,8.66355413 124.605829,6.87988122 125.879881,5.60582914 C125.964818,5.52089234 126.049755,5.35101873 125.964818,5.18114511 C125.879881,5.0112715 125.794944,4.9263347 125.625071,4.9263347 C123.841398,4.75646109 121.12342,4.41671387 121.12342,4.41671387 C121.12342,4.41671387 120.019242,1.95354652 119.25481,0.254810415 C119.169874,0.0849368052 119,7.10542736e-15 118.830126,7.10542736e-15 C118.660253,7.10542736e-15 118.490379,0.0849368052 118.405442,0.254810415 C117.980758,1.95354652 116.87658,4.41671387 116.87658,4.41671387" id="Path" fill="#FABB00"></path>
            <path d="M100.87658,4.41671387 C100.87658,4.41671387 98.1586021,4.75646109 96.3749292,4.9263347 C96.2050556,4.9263347 96.035182,5.09620831 96.035182,5.18114511 C95.9502452,5.35101873 96.035182,5.52089234 96.1201188,5.60582914 C97.4791077,6.79494441 99.4326542,8.66355413 99.4326542,8.66355413 C99.4326542,8.66355413 98.9230334,11.2965951 98.4983493,13.080268 C98.4983493,13.2501416 98.4983493,13.4200152 98.6682229,13.504952 C98.8380965,13.5898888 99.0079702,13.5898888 99.092907,13.504952 C100.706706,12.5706472 103,11.2965951 103,11.2965951 C103,11.2965951 105.378231,12.655584 106.907093,13.504952 C107.076967,13.5898888 107.24684,13.5898888 107.331777,13.504952 C107.501651,13.4200152 107.501651,13.2501416 107.501651,13.080268 C107.161903,11.2965951 106.567346,8.66355413 106.567346,8.66355413 C106.567346,8.66355413 108.605829,6.87988122 109.879881,5.60582914 C109.964818,5.52089234 110.049755,5.35101873 109.964818,5.18114511 C109.879881,5.0112715 109.794944,4.9263347 109.625071,4.9263347 C107.841398,4.75646109 105.12342,4.41671387 105.12342,4.41671387 C105.12342,4.41671387 104.019242,1.95354652 103.25481,0.254810415 C103.169874,0.0849368052 103,7.10542736e-15 102.830126,7.10542736e-15 C102.660253,7.10542736e-15 102.490379,0.0849368052 102.405442,0.254810415 C101.980758,1.95354652 100.87658,4.41671387 100.87658,4.41671387" id="Path" fill="#FABB00"></path>
            <path d="M84.8765799,4.41671387 C84.8765799,4.41671387 82.1586021,4.75646109 80.3749292,4.9263347 C80.2050556,4.9263347 80.035182,5.09620831 80.035182,5.18114511 C79.9502452,5.35101873 80.035182,5.52089234 80.1201188,5.60582914 C81.4791077,6.79494441 83.4326542,8.66355413 83.4326542,8.66355413 C83.4326542,8.66355413 82.9230334,11.2965951 82.4983493,13.080268 C82.4983493,13.2501416 82.4983493,13.4200152 82.6682229,13.504952 C82.8380965,13.5898888 83.0079702,13.5898888 83.092907,13.504952 C84.7067063,12.5706472 87,11.2965951 87,11.2965951 C87,11.2965951 89.3782305,12.655584 90.907093,13.504952 C91.0769666,13.5898888 91.2468403,13.5898888 91.3317771,13.504952 C91.5016507,13.4200152 91.5016507,13.2501416 91.5016507,13.080268 C91.1619035,11.2965951 90.5673458,8.66355413 90.5673458,8.66355413 C90.5673458,8.66355413 92.6058291,6.87988122 93.8798812,5.60582914 C93.964818,5.52089234 94.0497548,5.35101873 93.964818,5.18114511 C93.8798812,5.0112715 93.7949444,4.9263347 93.6250708,4.9263347 C91.8413979,4.75646109 89.1234201,4.41671387 89.1234201,4.41671387 C89.1234201,4.41671387 88.0192417,1.95354652 87.2548104,0.254810415 C87.1698736,0.0849368052 87,7.10542736e-15 86.8301264,7.10542736e-15 C86.6602528,7.10542736e-15 86.4903792,0.0849368052 86.4054424,0.254810415 C85.9807583,1.95354652 84.8765799,4.41671387 84.8765799,4.41671387" id="Path" fill="#FABB00"></path>
        </g>
    </g>
</svg>