<svg viewBox="0 0 64 61">
<path d="M38.46 53.259c1.26.34 2.568.515 3.9.515 8.285 0 15.024-6.76 15.024-15.07s-6.742-15.07-15.024-15.07c-1.331 0-2.638.174-3.898.514a21.647 21.647 0 015.605 14.556 21.653 21.653 0 01-5.607 14.555zm-2.48-28.797l-4.125-3.034a19.469 19.469 0 00-9.426-2.422c-10.825 0-19.635 8.837-19.635 19.698 0 10.859 8.81 19.696 19.635 19.696 3.943 0 7.619-1.173 10.7-3.189l2.854-2.27a19.678 19.678 0 006.084-14.237 19.672 19.672 0 00-6.086-14.242zm-3.584-5.014a21.459 21.459 0 019.965-2.442C54.292 17.006 64 26.74 64 38.704c-.005 11.963-9.71 21.695-21.64 21.695-3.515 0-6.913-.846-9.966-2.441A21.456 21.456 0 0122.43 60.4C10.498 60.4.794 50.666.794 38.704c0-11.964 9.704-21.698 21.635-21.698 3.592 0 6.982.882 9.967 2.442zm2.059 37.284a19.464 19.464 0 007.906 1.667c10.824 0 19.636-8.835 19.64-19.696 0-10.86-8.815-19.697-19.64-19.697-2.76 0-5.44.575-7.906 1.668a21.795 21.795 0 012.404 1.874 16.914 16.914 0 015.5-.914c9.39 0 17.025 7.657 17.025 17.07 0 9.414-7.633 17.07-17.024 17.07-1.894 0-3.746-.312-5.503-.916a21.795 21.795 0 01-2.402 1.874zm-8.125-3.473a21.652 21.652 0 01-5.603-14.556c0-5.46 2.032-10.604 5.602-14.554a14.946 14.946 0 00-3.901-.515c-8.281 0-15.02 6.76-15.02 15.069 0 8.311 6.738 15.07 15.02 15.07 1.349 0 2.657-.178 3.902-.514zm6.065-25.821a15.054 15.054 0 00-5.055 11.265c0 4.367 1.871 8.431 5.055 11.268a15.058 15.058 0 005.057-11.268c0-4.476-1.957-8.503-5.057-11.265zm-1.727 23.661a17.054 17.054 0 01-5.328-12.396 17.05 17.05 0 015.33-12.397l-2.37-1.337a19.658 19.658 0 00-5.573 13.734 19.659 19.659 0 005.596 13.758l2.345-1.362zm-8.24-29.465c9.387 0 17.024 7.657 17.024 17.069 0 9.415-7.633 17.07-17.024 17.07-9.388 0-17.02-7.655-17.02-17.07 0-9.412 7.633-17.069 17.02-17.069zM28.288.797a5.33 5.33 0 013.845 1.634A5.327 5.327 0 0135.978.797a5.352 5.352 0 015.345 5.356 5.32 5.32 0 01-1.52 3.734l-6.941 7.007a1 1 0 01-1.419.002l-7.01-7.032a5.35 5.35 0 01-1.49-3.711A5.352 5.352 0 0128.289.797zm11.035 5.356c0-1.853-1.5-3.356-3.345-3.356a3.34 3.34 0 00-2.96 1.792 1 1 0 01-1.77-.001 3.339 3.339 0 00-2.96-1.79 3.352 3.352 0 00-3.345 3.355c0 .88.338 1.705.92 2.313l6.286 6.305 6.229-6.286c.605-.62.945-1.444.945-2.332z"></path>
</svg>
