<svg class="w-6 h-6 mr-2" viewBox="0 0 54 51"> <path d="M28.943 13H47v1.588a8.083 8.083 0 01-1 3.91v11.487h8v1.496a7.806 7.806 0 01-1 3.83V51H1V35.31a7.806 7.806 0 01-1-3.83v-1.495h8V18.5a8.078 8.078 0 01-1-3.912V13h18.202l-4.96-4.961c-.784-.882-1.268-2.066-1.268-3.273A4.74 4.74 0 0123.742 0c1.284 0 2.46.501 3.33 1.365A4.7 4.7 0 0130.404 0a4.74 4.74 0 014.766 4.766c0 1.227-.496 2.41-1.379 3.388L28.943 13zM10 29.985h34v-9.109a7.67 7.67 0 01-4.811 1.69c-2.398 0-4.61-1.151-6.081-3.017-1.445 1.855-3.698 3.017-6.108 3.017-2.398 0-4.608-1.151-6.08-3.018-1.445 1.855-3.698 3.018-6.109 3.018A7.68 7.68 0 0110 20.876v9.109zm-7 7.677V49h48V37.662a8.147 8.147 0 01-5.098 1.78c-2.5 0-4.8-1.14-6.3-3.004a8.086 8.086 0 01-6.302 3.005c-2.5 0-4.8-1.141-6.3-3.006a8.08 8.08 0 01-6.3 3.006 8.086 8.086 0 01-6.302-3.005 8.082 8.082 0 01-6.3 3.005A8.147 8.147 0 013 37.662zm11.811-17.096c2.205 0 4.253-1.332 5.19-3.318l.875-1.854.923 1.83c1.024 2.032 3.02 3.342 5.201 3.342 2.205 0 4.253-1.332 5.19-3.318l.876-1.856.922 1.833c1.021 2.03 3.019 3.341 5.2 3.341 3.082 0 5.593-2.458 5.798-5.566H9.013c.206 3.125 2.734 5.566 5.798 5.566zM8.098 37.443a6.061 6.061 0 005.409-3.29l.891-1.749.891 1.75c1.017 1.996 3.1 3.289 5.411 3.289 2.31 0 4.39-1.292 5.41-3.29l.89-1.746.89 1.746a6.063 6.063 0 005.41 3.29c2.312 0 4.394-1.293 5.41-3.29l.892-1.749.891 1.75a6.061 6.061 0 005.409 3.289c3.19 0 5.814-2.412 6.076-5.458H2.022c.262 3.046 2.886 5.458 6.076 5.458zM32.341 6.777c.53-.588.829-1.302.829-2.01A2.74 2.74 0 0030.404 2c-1.046 0-1.954.563-2.448 1.496l-.884 1.67-.884-1.67C25.694 2.562 24.787 2 23.742 2a2.74 2.74 0 00-2.768 2.766c0 .698.294 1.416.723 1.901l5.375 5.375 5.269-5.265z" fill-rule="nonzero" ></path> </svg>